<svg xmlns="http://www.w3.org/2000/svg" version="1.1" xmlns:xlink="http://www.w3.org/1999/xlink" xmlns:svgjs="http://svgjs.dev/svgjs" width="1440" height="560" preserveAspectRatio="none" viewBox="0 0 1440 560"><g mask="url(&quot;#SvgjsMask1163&quot;)" fill="none"><rect width="1440" height="560" x="0" y="0" fill="rgba(241, 239, 238, 1)"></rect><path d="M941.3193640376458 407.0292919302403L945.8460720348087 540.2986114590864 1045.7622326193766 480.2629253593857z" fill="rgba(130, 130, 130, 1)" class="triangle-float2"></path><path d="M508.68146913574685 65.07592946497081L417.9331538146906 35.59001441720524 388.44723876692507 126.33832973826146 479.1955540879813 155.82424478602704z" fill="rgba(130, 130, 130, 1)" class="triangle-float1"></path><path d="M471.42539725699237 301.3060176458209L469.010911497569 432.4682430239116 570.2636672975633 378.6311977833381z" fill="rgba(130, 130, 130, 1)" class="triangle-float1"></path><path d="M879.5113753209835 109.47139135641011L1043.5198392597 153.58489531453753 1007.6029802348515 9.530241945181302z" fill="rgba(130, 130, 130, 1)" class="triangle-float1"></path><path d="M1449.341726393848 270.52056078749615L1451.162465316686 166.21049775847678 1346.8524022876666 164.3897588356388 1345.0316633648285 268.6998218646582z" fill="rgba(130, 130, 130, 1)" class="triangle-float1"></path><path d="M660.3735747852982 257.59078877916625L721.7439697880818 194.03988438448243 658.1930653933981 132.66948938169872 596.8226703906143 196.22039377638254z" fill="rgba(130, 130, 130, 1)" class="triangle-float3"></path><path d="M516.6017569451301 64.28852262396217L614.0097001083692 52.3283310942088 602.0495085786158-45.07961206903029 504.6415654153767-33.119420539276916z" fill="rgba(130, 130, 130, 1)" class="triangle-float3"></path><path d="M1340.647329595044 61.11476270865055L1212.1203236158303 11.777867582448508 1162.7834284896282 140.30487356166236 1291.310434468842 189.6417686878644z" fill="rgba(130, 130, 130, 1)" class="triangle-float3"></path><path d="M842.2099386513743 174.1737167611247L926.2363652411766 206.4284399214933 958.4910884015452 122.40201333169097 874.4646618117429 90.14729017132238z" fill="rgba(130, 130, 130, 1)" class="triangle-float1"></path><path d="M213.7270021016646 421.36504782535366L68.72898446004208 471.29186917162633 118.65580580631476 616.2898868132488 263.65382344793727 566.3630654669762z" fill="rgba(130, 130, 130, 1)" class="triangle-float2"></path><path d="M1453.2025099523516 314.14148589161704L1318.0312226524404 389.0681539384806 1392.957890699304 524.2394412383918 1528.1291779992152 449.31277319152827z" fill="rgba(130, 130, 130, 1)" class="triangle-float3"></path><path d="M120.17658937537995-8.837583994988593L22.03719388105864-24.381337224145007 47.791261784484675 130.59963263191517z" fill="rgba(130, 130, 130, 1)" class="triangle-float3"></path><path d="M849.5440783054203-9.644351218251202L902.9863489979433 146.04511782301148 999.2688472166107 39.11257034233992z" fill="rgba(130, 130, 130, 1)" class="triangle-float2"></path><path d="M266.4047238511826-43.62818917793079L264.163884351162 84.7494197989413 394.7823328280547-41.387349677910166z" fill="rgba(130, 130, 130, 1)" class="triangle-float3"></path><path d="M669.2794873244931 211.8401958692518L649.2244944245144 315.0141901330931 814.0129822702658 293.50968235114044z" fill="rgba(130, 130, 130, 1)" class="triangle-float3"></path></g><defs><mask id="SvgjsMask1163"><rect width="1440" height="560" fill="#ffffff"></rect></mask><style>
                @keyframes float1 {
                    0%{transform: translate(0, 0)}
                    50%{transform: translate(-10px, 0)}
                    100%{transform: translate(0, 0)}
                }

                .triangle-float1 {
                    animation: float1 5s infinite;
                }

                @keyframes float2 {
                    0%{transform: translate(0, 0)}
                    50%{transform: translate(-5px, -5px)}
                    100%{transform: translate(0, 0)}
                }

                .triangle-float2 {
                    animation: float2 4s infinite;
                }

                @keyframes float3 {
                    0%{transform: translate(0, 0)}
                    50%{transform: translate(0, -10px)}
                    100%{transform: translate(0, 0)}
                }

                .triangle-float3 {
                    animation: float3 6s infinite;
                }
            </style></defs></svg>