<svg xmlns="http://www.w3.org/2000/svg" version="1.1" xmlns:xlink="http://www.w3.org/1999/xlink" xmlns:svgjs="http://svgjs.dev/svgjs" width="1440" height="560" preserveAspectRatio="none" viewBox="0 0 1440 560"><g mask="url(&quot;#SvgjsMask1047&quot;)" fill="none"><rect width="1440" height="560" x="0" y="0" fill="#0e2a47"></rect><path d="M30.97 559.39 a111.12 111.12 0 1 0 222.24 0 a111.12 111.12 0 1 0 -222.24 0z" fill="rgba(28, 83, 142, 0.4)" class="triangle-float1"></path><path d="M330.34068796118237 56.318714073708634L197.0485095905741 75.051708081214 215.78150359807947 208.34388645182227 349.07368196868777 189.6108924443169z" fill="rgba(28, 83, 142, 0.4)" class="triangle-float2"></path><path d="M969.0937529166476 362.2558837932662L972.7708340136238 256.9580581584353 867.4730083787929 253.2809770614591 863.7959272818167 358.57880269629004z" fill="rgba(28, 83, 142, 0.4)" class="triangle-float3"></path><path d="M458.458,115.933C473.322,114.971,485.03,104.123,491.741,90.825C497.774,78.871,497.009,64.808,490.026,53.383C483.345,42.452,471.258,36.907,458.458,36.375C444.491,35.794,430.028,39.117,421.989,50.553C412.655,63.83,408.861,81.505,416.767,95.679C424.834,110.14,441.934,117.003,458.458,115.933" fill="rgba(28, 83, 142, 0.4)" class="triangle-float1"></path><path d="M1320.711,606.06C1349.31,606.14,1377.949,596.174,1393.122,571.932C1409.194,546.253,1411.129,512.884,1395.127,487.161C1379.867,462.631,1349.48,452.9,1320.711,455.53C1296.048,457.785,1279.663,477.843,1266.64,498.908C1252.599,521.619,1236.965,547.693,1248.994,571.531C1261.805,596.919,1292.274,605.981,1320.711,606.06" fill="rgba(28, 83, 142, 0.4)" class="triangle-float2"></path><path d="M94.11713669270804 427.1117181924611L107.68478461293674 512.7744757993826 229.39509706320462 449.59162511557884z" fill="rgba(28, 83, 142, 0.4)" class="triangle-float1"></path><path d="M1232.2089924589359 25.140492895288734L1158.0226050717888 170.73947614677857 1303.6215883232785 244.92586353392574 1377.8079757104258 99.32688028243591z" fill="rgba(28, 83, 142, 0.4)" class="triangle-float2"></path><path d="M1479.4378456547865 399.96050702093424L1330.953466565793 314.04422848240176 1328.3362825788456 463.98259867525496z" fill="rgba(28, 83, 142, 0.4)" class="triangle-float3"></path><path d="M44.69 287.5 a119.95 119.95 0 1 0 239.9 0 a119.95 119.95 0 1 0 -239.9 0z" fill="rgba(28, 83, 142, 0.4)" class="triangle-float2"></path><path d="M231.03439990383373 140.01264572783907L126.66236728651526 173.9251748610692 264.94692903706385 244.38467834515754z" fill="rgba(28, 83, 142, 0.4)" class="triangle-float2"></path><path d="M812.4139755506633-63.46167622444521L783.0491686279677 38.94557557836313 885.456420430776 68.31038250105878 914.8212273534716-34.09686930174956z" fill="rgba(28, 83, 142, 0.4)" class="triangle-float1"></path><path d="M288.67963391509056 251.60123098312107L292.8884550240675 131.07636368397462 172.36358772492108 126.86754257499766 168.1547666159441 247.3924098741441z" fill="rgba(28, 83, 142, 0.4)" class="triangle-float2"></path><path d="M1186.9921526398098 210.24313202052465L1062.457993250562 192.6199531455618 1101.859499700035 295.2643867295467z" fill="rgba(28, 83, 142, 0.4)" class="triangle-float2"></path><path d="M1181.7428482955154 281.33781824069393L1238.5321997202523 244.458382212708 1154.818369965905 177.7140730895958z" fill="rgba(28, 83, 142, 0.4)" class="triangle-float1"></path><path d="M1057.406,112.018C1089.676,110.169,1112.642,83.185,1127.025,54.238C1139.682,28.764,1139.878,-0.726,1125.672,-25.37C1111.449,-50.044,1085.882,-66.086,1057.406,-66.535C1028.132,-66.997,1001.353,-52.072,985.304,-27.585C967.368,-0.219,957.435,34.02,972.45,63.092C988.523,94.212,1022.438,114.021,1057.406,112.018" fill="rgba(28, 83, 142, 0.4)" class="triangle-float2"></path></g><defs><mask id="SvgjsMask1047"><rect width="1440" height="560" fill="#ffffff"></rect></mask><style>
                @keyframes float1 {
                    0%{transform: translate(0, 0)}
                    50%{transform: translate(-10px, 0)}
                    100%{transform: translate(0, 0)}
                }

                .triangle-float1 {
                    animation: float1 5s infinite;
                }

                @keyframes float2 {
                    0%{transform: translate(0, 0)}
                    50%{transform: translate(-5px, -5px)}
                    100%{transform: translate(0, 0)}
                }

                .triangle-float2 {
                    animation: float2 4s infinite;
                }

                @keyframes float3 {
                    0%{transform: translate(0, 0)}
                    50%{transform: translate(0, -10px)}
                    100%{transform: translate(0, 0)}
                }

                .triangle-float3 {
                    animation: float3 6s infinite;
                }
            </style></defs></svg>